<svg width="16" height="16" viewBox="0 0 16 16" fill="none" xmlns="http://www.w3.org/2000/svg">
<path d="M2.5 7V4" stroke="black" stroke-linecap="round" stroke-linejoin="round"/>
<path d="M1 5.5H4" stroke="black" stroke-linecap="round" stroke-linejoin="round"/>
<path d="M5.5 1.5V3.5" stroke="black" stroke-linecap="round" stroke-linejoin="round"/>
<path d="M4.5 2.5H6.5" stroke="black" stroke-linecap="round" stroke-linejoin="round"/>
<path d="M2.45642 9.53755C3.43809 9.81283 4.47533 9.82185 5.46164 9.56369C6.44795 9.30553 7.34777 8.78949 8.06869 8.06857C8.78961 7.34765 9.30564 6.44783 9.56381 5.46152C9.82197 4.47522 9.81294 3.43797 9.53767 2.4563C10.5055 2.72568 11.3859 3.24394 12.0911 3.95944C12.7963 4.67495 13.3017 5.56274 13.5571 6.53438C13.8124 7.50602 13.8087 8.52759 13.5463 9.49736C13.284 10.4671 12.7721 11.3512 12.0617 12.0616C11.3513 12.772 10.4672 13.2838 9.49747 13.5462C8.52771 13.8086 7.50613 13.8123 6.5345 13.5569C5.56286 13.3016 4.67507 12.7962 3.95956 12.091C3.24406 11.3858 2.7258 10.5054 2.45642 9.53755Z" stroke="black" stroke-linecap="round" stroke-linejoin="round"/>
</svg>
